<svg xmlns="http://www.w3.org/2000/svg" xml:space="preserve" id="Layer_1" x="0" y="0" version="1.1" viewBox="0 0 500 500">
  <style>
    .st1{fill:none;stroke:#000;stroke-width:6;stroke-linecap:round;stroke-linejoin:round;stroke-miterlimit:10}.st5{fill:#fff}
  </style>
	<path d="M140.28 173.5h16.4c10.07 0 18.74 7.12 20.7 17l21.05 105.19" class="st1"/>
	<path d="m310.97 279.66-3.95 16.03H181.14c-4.8 0-8.69 3.88-8.7 8.68h0c-.02 4.82 3.89 8.73 8.7 8.73h145.18M181.56 211.53h40.79" class="st1"/>
	<circle cx="286.54" cy="342.43" r="13" class="st1"/>
	<circle cx="210.52" cy="342.43" r="13" class="st1"/>
	<path fill="none" stroke="#000" stroke-linecap="round" stroke-miterlimit="10" stroke-width="6" d="M355.23 182.5a60.805 60.805 0 0 1 4.49 22.99c0 33.64-27.27 60.92-60.92 60.92s-60.92-27.27-60.92-60.92 27.27-60.92 60.92-60.92c10.79 0 20.93 2.81 29.72 7.73"/>
	<ellipse cx="317.21" cy="205.49" class="st1" rx="15.49" ry="20.9"/>
	<path d="M324.91 205.49c0 4.26-3.45 7.71-7.71 7.71h-.02a7.63 7.63 0 0 1-4.83-1.72 7.666 7.666 0 0 1-2.86-5.99c0-4.26 3.45-7.71 7.71-7.71s7.71 3.45 7.71 7.71z"/>
	<ellipse cx="319.26" cy="201.32" class="st5" rx="1.8" ry="2.67" transform="rotate(-70.749 319.264 201.318)"/>
	<path d="M317.46 212.74c-.06.17-.16.33-.28.46a7.63 7.63 0 0 1-4.83-1.72c-.02-.17 0-.34.06-.5.33-.94 1.72-1.31 3.12-.82 1.39.48 2.26 1.64 1.93 2.58z" class="st5"/>
	<ellipse cx="280.39" cy="205.49" class="st1" rx="15.49" ry="20.9"/>
	<path d="M288.1 205.49c0 4.26-3.45 7.71-7.71 7.71h-.02a7.63 7.63 0 0 1-4.83-1.72 7.666 7.666 0 0 1-2.86-5.99c0-4.26 3.45-7.71 7.71-7.71s7.71 3.45 7.71 7.71z"/>
	<ellipse cx="282.45" cy="201.32" class="st5" rx="1.8" ry="2.67" transform="rotate(-70.749 282.45 201.318)"/>
	<path d="M280.65 212.74c-.06.17-.16.33-.28.46a7.63 7.63 0 0 1-4.83-1.72c-.02-.17 0-.34.06-.5.33-.94 1.72-1.31 3.12-.82 1.39.48 2.26 1.64 1.93 2.58z" class="st5"/>
</svg>
