<svg xmlns="http://www.w3.org/2000/svg" xml:space="preserve" id="Layer_1" x="0" y="0" version="1.1" viewBox="0 0 494.94 494.94">
  <style>
    .st1{fill:none;stroke:#000;stroke-width:6;stroke-linecap:round;stroke-linejoin:round;stroke-miterlimit:10}
  </style>
  <path d="M155.21 114.18h123.6c6.55 0 11.85 5.31 11.85 11.85v0c0 6.55-5.31 11.85-11.85 11.85h-123.6c-6.55 0-11.85-5.31-11.85-11.85v0c0-6.54 5.3-11.85 11.85-11.85z" class="st1"/>
  <path d="M255.95 156.2c-1.43 7.11-3.99 18.29-9.49 27.97-7.08 12.45-16.72 18.5-29.45 18.5s-22.36-6.05-29.45-18.5c-5.51-9.68-8.07-20.87-9.49-27.97h77.88m2.76-6h-83.4c-2.34 0-4.11 2.13-3.66 4.43 2.67 13.64 10.19 54.04 45.36 54.04s42.7-40.41 45.36-54.04c.45-2.3-1.32-4.43-3.66-4.43z"/>
  <path d="M226.59 274.44c-2.9-.64-6.09-1-9.58-1-31.03 0-37.71 27.91-39.1 37.77a2.973 2.973 0 0 0 2.95 3.39h32.64m3.51 38.17h-61.8c-6.55 0-11.85-5.31-11.85-11.85v0c0-6.55 5.31-11.85 11.85-11.85h58.29m37.68-72.29c-3.53-3.49-11.63-11.36-14.72-15.26-10.09-12.69 6.19-21.59 14.01-29.46 16.09-16.2 23.33-38.38 24.63-60.81.26-4.44.34-8.94-.06-13.37m-116.06 190.9c-1.37-16.32 1.5-32.95 8.23-47.88 3.32-7.36 7.57-14.31 12.67-20.58 5.44-6.7 12.31-12.04 17.68-18.79 10.09-12.69-6.19-21.59-14.01-29.46-16.09-16.2-23.33-38.38-24.63-60.81-.26-4.44-.34-8.94.06-13.37m58.03 89.92v5.97m0 18.55v5.97" class="st1"/>
  <path fill="none" stroke="#000" stroke-linecap="round" stroke-miterlimit="10" stroke-width="6" d="M313.65 376.27a60.805 60.805 0 0 1-22.99 4.49c-33.64 0-60.92-27.27-60.92-60.92s27.27-60.92 60.92-60.92 60.92 27.27 60.92 60.92c0 10.79-2.81 20.93-7.73 29.72"/>
  <path d="M311.35 338.53c1.63.64 3.54.32 4.86-.99 1.42-1.41 2.84-2.83 4.25-4.25 1.92-1.93 1.92-4.44 0-6.39 0 0-.9-.92-1.17-1.19-.3-.3-.6-.6-.94-.92-.17-.17-.2-.26-.08-.54.45-1.03.81-1.89 1.13-2.72.1-.27.18-.3.43-.3 1.02.01 2.04.01 3.05 0 2.68-.02 4.43-1.77 4.44-4.44.01-2.05.01-4.1-.01-6.15-.01-1.31-.43-2.42-1.22-3.2-.79-.79-1.91-1.21-3.23-1.23-1-.01-2-.02-3 0-.26.01-.32-.06-.35-.08a.773.773 0 0 1-.16-.28c-.31-.85-.67-1.69-1.02-2.49l-.07-.17c-.13-.31-.08-.38.07-.52.75-.72 1.49-1.47 2.22-2.21 1.27-1.3 1.64-2.86 1.09-4.52a7.5 7.5 0 0 0-.24-.6l-6.41-6.34c-1.95-.89-3.58-.61-5.13.89-.71.69-1.42 1.4-2.11 2.12-.15.16-.38.2-.58.11-1.06-.47-1.88-.81-2.67-1.1a.632.632 0 0 1-.25-.14c-.02-.02-.09-.09-.09-.38.02-1 .01-2 0-3-.01-1.31-.44-2.42-1.22-3.21-.79-.79-1.91-1.22-3.23-1.22-2.05-.01-4.1-.02-6.15 0-2.65.02-4.38 1.75-4.41 4.4l-.07 2.9c0 .19-.12.37-.3.44-.57.24-1.84.77-2.64 1.13-.2.09-.42.04-.57-.12-.69-.72-1.4-1.42-2.11-2.11-1.55-1.5-3.18-1.79-5.13-.89l-6.41 6.34c-.09.2-.17.4-.24.6-.27.8-.32 1.58-.15 2.32" class="st1"/>
  <circle cx="279.4" cy="330.49" r="10.29" class="st1"/>
  <path d="M261.33 321.61c-.19.47-.63 1.53-.89 2.21-.06.17-.23.27-.4.27-.83-.02-1.65-.01-2.48 0-1.79.03-2.91.82-3.53 2.48l-.04 7.47c.06.17.13.33.21.49.65 1.29 1.78 1.99 3.29 2.01.87.01 1.73.02 2.6 0 .17 0 .25.01.35.26l.06.15c.27.68.55 1.38.86 2.06.06.13.07.21.07.25 0 .03 0 .11-.15.25-.6.57-1.18 1.17-1.76 1.76-.77.78-1.17 1.69-1.17 2.61 0 .92.4 1.82 1.16 2.59 1.19 1.21 2.39 2.42 3.6 3.61 1.58 1.56 3.62 1.55 5.21 0 .6-.59 1.2-1.19 1.79-1.79.15-.15.21-.17.43-.08.67.3 1.39.6 2.25.93.23.09.27.16.27.36-.01.38-.01.74-.01 1.09 0 .31.01 1.38.01 1.38.01 2.32 1.55 3.8 3.89 3.74 1.61-.04 3.22 0 4.82 0 2.24 0 3.71-1.45 3.75-3.69.01-.42.01-.85.01-1.27 0-.41 0-.81-.01-1.22v-.01c0-.21.02-.3.31-.41.65-.24 1.33-.53 2.21-.92.15-.07.32-.04.44.08l1.91 1.94c.76.74 1.65 1.14 2.57 1.14.93 0 1.82-.4 2.59-1.16 1.21-1.2 2.42-2.4 3.62-3.61 1.42-1.44 1.4-3.75-.01-5.19-.59-.6-1.19-1.2-1.79-1.79-.12-.11-.14-.29-.08-.44.4-.88.68-1.56.92-2.21.11-.29.2-.31.41-.31h.01c.41.01.81.01 1.22.01.42 0 .83 0 1.25-.01 2.05-.03 3.71-1.69 3.71-3.73.01-1.66 0-3.32 0-4.98-.01-2.26-1.48-3.73-3.75-3.74 0 0-1.07-.01-1.38-.01-.35 0-.7 0-1.09.01-.2 0-.27-.03-.36-.27-.34-.87-.63-1.58-.93-2.25-.1-.22-.07-.28.08-.43.6-.59 1.2-1.19 1.79-1.79 1.56-1.59 1.56-3.63 0-5.21-1.19-1.21-2.4-2.41-3.61-3.6-.77-.76-1.67-1.16-2.59-1.16-.93 0-1.83.41-2.61 1.17-.59.58-1.18 1.16-1.76 1.76-.15.15-.22.15-.25.15-.04 0-.12-.01-.25-.07-.68-.31-1.38-.59-2.06-.86l-.15-.06c-.26-.1-.27-.18-.26-.35.02-.87.01-1.73 0-2.6-.02-1.5-.72-2.64-2.01-3.29-.16-.08-.33-.15-.49-.21l-7.47.04c-1.67.62-2.46 1.74-2.48 3.53-.01.83-.02 1.65 0 2.48 0 .18-.11.34-.28.41-.9.34-1.58.63-2.21.92-.09.04-.17.07-.23.07-.03 0-.11 0-.28-.17-.57-.59-1.16-1.18-1.76-1.76-.77-.76-1.67-1.16-2.6-1.16-.93 0-1.83.41-2.61 1.17-1.21 1.19-2.41 2.39-3.61 3.61-1.54 1.56-1.54 3.59 0 5.17l1.66 1.74c.1.12.13.29.07.44z" class="st1"/>
</svg>
