<svg xmlns="http://www.w3.org/2000/svg" viewBox="0 0 500 500">
    <defs>
        <style>
            .st1{fill:none;stroke:#000;stroke-width:6;stroke-linecap:round;stroke-linejoin:round;stroke-miterlimit:10}
        </style>
    </defs>
    <path d="M242.39 215.78c7.4 2.95 14.27 6.93 20.45 11.75m-54.26 96.36H128v-30.52c0-36.04 22.84-66.75 54.84-78.44" class="st1"/>
    <circle cx="211.56" cy="169.9" r="53.4" class="st1"/>
    <path fill="none" stroke="#000" stroke-linecap="round" stroke-miterlimit="10" stroke-width="6" d="M316.39 360.9a60.805 60.805 0 0 1-22.99 4.49c-33.64 0-60.92-27.27-60.92-60.92s27.27-60.92 60.92-60.92 60.92 27.27 60.92 60.92c0 10.79-2.81 20.93-7.73 29.72"/>
    <path d="M299.959 330.053a2.296 2.296 0 0 1-2.206-1.66l-11.011-38.149-7.178 30.494a2.295 2.295 0 0 1-2.091 1.77 2.254 2.254 0 0 1-2.296-1.485l-6.327-16.882h-3.001a2.296 2.296 0 1 1 0-4.591h4.592a2.294 2.294 0 0 1 2.151 1.489l4.231 11.292 7.453-31.684a2.295 2.295 0 0 1 2.178-1.761h.058c1.023 0 1.923.677 2.206 1.66l11.037 38.22 7.482-31.224a2.296 2.296 0 0 1 2.135-1.768 2.242 2.242 0 0 1 2.275 1.568l5.71 17.125h3.593c1.768 0 2.872 1.914 1.989 3.444a2.295 2.295 0 0 1-1.989 1.148h-5.248a2.296 2.296 0 0 1-2.177-1.57l-3.694-11.076-7.638 31.879a2.298 2.298 0 0 1-2.181 1.759l-.053.002Z"/>
</svg>
