<svg xmlns="http://www.w3.org/2000/svg" xml:space="preserve" id="Layer_1" x="0" y="0" version="1.1" viewBox="0 0 494.94 494.94">
  <style>
    .st1{fill:none;stroke:#000;stroke-width:6;stroke-linecap:round;stroke-linejoin:round;stroke-miterlimit:10}
  </style>
  <path d="M155.21 114.18h123.6c6.55 0 11.85 5.31 11.85 11.85v0c0 6.55-5.31 11.85-11.85 11.85h-123.6c-6.55 0-11.85-5.31-11.85-11.85v0c0-6.54 5.3-11.85 11.85-11.85z" class="st1"/>
  <path d="M255.95 156.2c-1.43 7.11-3.99 18.29-9.49 27.97-7.08 12.45-16.72 18.5-29.45 18.5s-22.36-6.05-29.45-18.5c-5.51-9.68-8.07-20.87-9.49-27.97h77.88m2.76-6h-83.4c-2.34 0-4.11 2.13-3.66 4.43 2.67 13.64 10.19 54.04 45.36 54.04s42.7-40.41 45.36-54.04c.45-2.3-1.32-4.43-3.66-4.43z"/>
  <path d="M228.64 274.95c-3.44-.96-7.29-1.51-11.63-1.51-31.03 0-37.71 27.91-39.1 37.77a2.973 2.973 0 0 0 2.95 3.39h32.4m3.75 38.17h-61.8c-6.55 0-11.85-5.31-11.85-11.85v0c0-6.55 5.31-11.85 11.85-11.85h58.05m35.61-74.55c-4.21-4.27-8.67-8.29-12.42-13-10.09-12.69 6.19-21.59 14.01-29.46 16.09-16.2 23.33-38.38 24.63-60.81.26-4.44.34-8.94-.06-13.37m-116.05 190.9c-1.37-16.32 1.5-32.95 8.23-47.88 3.32-7.36 7.57-14.31 12.67-20.58 5.44-6.7 12.31-12.04 17.68-18.79 10.09-12.69-6.19-21.59-14.01-29.46-16.09-16.2-23.33-38.38-24.63-60.81-.26-4.44-.34-8.94.06-13.37m58.03 81.92v5.97m0 11.91v6.74m0 11.9v5.97" class="st1"/>
  <path fill="none" stroke="#000" stroke-linecap="round" stroke-miterlimit="10" stroke-width="6" d="M313.65 376.27a60.805 60.805 0 0 1-22.99 4.49c-33.64 0-60.92-27.27-60.92-60.92s27.27-60.92 60.92-60.92 60.92 27.27 60.92 60.92c0 10.79-2.81 20.93-7.73 29.72"/>
  <path d="M314.54 289.77h-11.39v6h11.39c4.02 0 7.27 3.25 7.27 7.26v40.83a7.27 7.27 0 0 1-7.27 7.27h-47.75a7.27 7.27 0 0 1-7.27-7.27v-40.83c0-4.01 3.25-7.26 7.27-7.26h11.4v-6h-11.4c-7.32 0-13.27 5.95-13.27 13.26v40.83c0 7.31 5.95 13.27 13.27 13.27h47.75c7.32 0 13.27-5.96 13.27-13.27v-40.83c0-7.31-5.95-13.26-13.27-13.26zm-14.3 6v-6H281.1v6h19.14z"/>
  <path d="M321.81 313.3h-62.29" class="st1"/>
  <path d="M302.1 282.02h-.82c-3.88 0-7.04 3.16-7.04 7.04v7.21c0 3.89 3.16 7.05 7.04 7.05h.82c3.88 0 7.05-3.16 7.05-7.05v-7.21c0-3.88-3.17-7.04-7.05-7.04zm1.05 14.25c0 .58-.47 1.05-1.05 1.05h-.82c-.57 0-1.04-.47-1.04-1.05v-7.21c0-.57.47-1.04 1.04-1.04h.82c.58 0 1.05.47 1.05 1.04v7.21zm-23.1-14.25h-.82c-3.88 0-7.04 3.16-7.04 7.04v7.21c0 3.89 3.16 7.05 7.04 7.05h.82c3.88 0 7.05-3.16 7.05-7.05v-7.21c0-3.88-3.17-7.04-7.05-7.04zm1.05 14.25c0 .58-.47 1.05-1.05 1.05h-.82c-.57 0-1.04-.47-1.04-1.05v-7.21c0-.57.47-1.04 1.04-1.04h.82c.58 0 1.05.47 1.05 1.04v7.21z"/>
  <path fill="none" stroke="#000" stroke-linecap="round" stroke-linejoin="round" stroke-miterlimit="10" stroke-width="4" d="M296.05 324.61h4.66v17.37m-20.09-12.73c0-2.29 1.86-4.15 4.15-4.15s4.15 1.86 4.15 4.15a4.15 4.15 0 0 1-3.22 4.04 4.14 4.14 0 0 1 3.22 4.04c0 2.29-1.86 4.15-4.15 4.15s-4.15-1.86-4.15-4.15"/>
</svg>
