<svg xmlns="http://www.w3.org/2000/svg" xml:space="preserve" id="Layer_1" x="0" y="0" version="1.1" viewBox="0 0 494.94 494.94">
  <style>
    .st1{fill:none;stroke:#000;stroke-width:8;stroke-linecap:round;stroke-linejoin:round;stroke-miterlimit:10}
  </style>
  <path d="M246.54 221.48a83.365 83.365 0 0 1 21.87 12.01m-52.3 96.92h-81.8v-30.52c0-36.04 22.84-66.75 54.83-78.44" class="st1"/>
  <circle cx="217.87" cy="176.42" r="53.4" class="st1"/>
  <path fill="none" stroke="#000" stroke-linecap="round" stroke-miterlimit="10" stroke-width="8" d="M322.7 367.43a60.805 60.805 0 0 1-22.99 4.49c-33.64 0-60.92-27.27-60.92-60.92s27.27-60.92 60.92-60.92 60.92 27.27 60.92 60.92c0 10.79-2.81 20.93-7.73 29.72"/>
  <path d="m322.4 284.08 4.22 4.22c3.23 3.23 3.23 8.47 0 11.71l-3.91 3.91-15.93-15.93 3.91-3.91a8.269 8.269 0 0 1 11.71 0z" class="st1"/>
  <path d="M288.86 289.9h22.53v41.36h-22.53z" class="st1" transform="rotate(45.001 300.129 310.574)"/>
  <path d="m277.54 317.23 15.93 15.93-23.1 7.18z" class="st1"/>
</svg>
