<svg xmlns="http://www.w3.org/2000/svg" xml:space="preserve" id="Layer_1" x="0" y="0" version="1.1" viewBox="0 0 500 500">
  <style>
    .st1{fill:none;stroke:#000;stroke-width:8;stroke-linecap:round;stroke-linejoin:round;stroke-miterlimit:10}
  </style>
  <path d="m327.77 190.42 22.3 14.98a19.16 19.16 0 0 1 9.73 16.67V337.1c0 9.11-7.39 16.5-16.5 16.5H156.7c-9.11 0-16.5-7.39-16.5-16.5V222.08c0-6.9 3.72-13.27 9.73-16.67l22.09-14.98" class="st1"/>
  <path d="m359.8 237.71-89.76 45.9a44.01 44.01 0 0 1-40.09 0l-89.75-45.9" class="st1"/>
  <path d="M172.01 253.49v-87.72c0-10.7 8.67-19.37 19.37-19.37H308.4c10.7 0 19.37 8.67 19.37 19.37v53.45m-54.96 21.11h21.78m-88.16 0h49.51m-24.75-27.28h63.4m-88.16 0h9.74m-9.93-28.31h49.7m71.83 55.59v13.76m-120.73 22.85-66.84 60.17m152.76-60.17 66.84 60.17" class="st1"/>
</svg>
