<svg xmlns="http://www.w3.org/2000/svg" xml:space="preserve" id="Layer_1" x="0" y="0" version="1.1" viewBox="0 0 494.94 494.94">
  <style>
    .st0,.st1{fill:none;stroke:#000;stroke-width:6;stroke-linecap:round;stroke-miterlimit:10}.st1{stroke-linejoin:round}
  </style>
  <path d="M155.21 114.18h123.6c6.55 0 11.85 5.31 11.85 11.85v0c0 6.55-5.31 11.85-11.85 11.85h-123.6c-6.55 0-11.85-5.31-11.85-11.85v0c0-6.54 5.3-11.85 11.85-11.85z" class="st1"/>
  <path d="M255.95 156.2c-1.43 7.11-3.99 18.29-9.49 27.97-7.08 12.45-16.72 18.5-29.45 18.5s-22.36-6.05-29.45-18.5c-5.51-9.68-8.07-20.87-9.49-27.97h77.88m2.76-6h-83.4c-2.34 0-4.11 2.13-3.66 4.43 2.67 13.64 10.19 54.04 45.36 54.04s42.7-40.41 45.36-54.04c.45-2.3-1.32-4.43-3.66-4.43z"/>
  <path d="M227.54 274.66c-3.16-.78-6.65-1.22-10.53-1.22-31.03 0-37.71 27.91-39.1 37.77a2.973 2.973 0 0 0 2.95 3.39h31.68m4.47 38.17h-61.8c-6.55 0-11.85-5.31-11.85-11.85v0c0-6.55 5.31-11.85 11.85-11.85h57.33m37.1-73.75c-4.43-4.57-9.22-8.79-13.19-13.79-10.09-12.69 6.19-21.59 14.01-29.46 16.09-16.2 23.33-38.38 24.63-60.81.26-4.44.34-8.94-.06-13.37M158.98 328.78c-1.37-16.32 1.5-32.95 8.23-47.88 3.32-7.36 7.57-14.31 12.67-20.58 5.44-6.7 12.31-12.04 17.68-18.79 10.09-12.69-6.19-21.59-14.01-29.46-16.09-16.2-23.33-38.38-24.63-60.81-.26-4.44-.34-8.94.06-13.37m58.03 89.92v5.97m0 18.55v5.97" class="st1"/>
  <path d="M313.65 376.27a60.805 60.805 0 0 1-22.99 4.49c-33.64 0-60.92-27.27-60.92-60.92s27.27-60.92 60.92-60.92 60.92 27.27 60.92 60.92c0 10.79-2.81 20.93-7.73 29.72m-53.19-90.64v9.38m60.92 51.54h-9.38m-51.54 60.92v-9.39m-60.92-51.53h9.39" class="st0"/>
  <circle cx="290.66" cy="319.84" r="6.23" fill="none"/>
  <path d="M290.66 292.48v27.36l-26.22 26.46" class="st0"/>
</svg>
