<svg xmlns="http://www.w3.org/2000/svg" xml:space="preserve" id="Layer_1" x="0" y="0" version="1.1" viewBox="0 0 500 500">
  <style>
    .st1,.st2{fill:none;stroke:#000;stroke-width:8;stroke-linecap:round;stroke-linejoin:round;stroke-miterlimit:10}.st2{stroke-width:4}
  </style>
  <path d="M242.39 215.78c7.4 2.95 14.27 6.93 20.45 11.75m-54.26 96.36H128v-30.52c0-36.04 22.84-66.75 54.84-78.44" class="st1"/>
  <circle cx="211.56" cy="169.9" r="53.4" class="st1"/>
  <path fill="none" stroke="#000" stroke-linecap="round" stroke-miterlimit="10" stroke-width="6" d="M316.39 360.9a60.805 60.805 0 0 1-22.99 4.49c-33.64 0-60.92-27.27-60.92-60.92s27.27-60.92 60.92-60.92 60.92 27.27 60.92 60.92c0 10.79-2.81 20.93-7.73 29.72"/>
  <path d="M276.88 299.19h33.04v-7.21c0-8.88-7.2-16.08-16.08-16.08h-.87c-5.52 0-10.39 2.78-13.29 7.02" class="st1"/>
  <path d="M309.39 299.12H277.4a6.98 6.98 0 0 0-6.98 6.98v14.03c0 7.13 5.78 12.92 12.92 12.92h20.11c7.13 0 12.92-5.78 12.92-12.92V306.1c0-3.85-3.13-6.98-6.98-6.98z" class="st1"/>
  <circle cx="293.4" cy="311.91" r="4.18" class="st2"/>
  <path d="M293.4 316.1v5.76" class="st2"/>
</svg>
