<svg xmlns="http://www.w3.org/2000/svg" xml:space="preserve" id="Layer_1" x="0" y="0" version="1.1" viewBox="0 0 500 500">
  <style>
    .st1{fill:none;stroke:#000;stroke-width:8;stroke-linecap:round;stroke-linejoin:round;stroke-miterlimit:10}
  </style>
  <path d="M250 335.34c-36.7 0-66.45-29.75-66.45-66.45s29.75-66.45 66.45-66.45 66.45 29.75 66.45 66.45-29.75 66.45-66.45 66.45" class="st1"/>
  <path d="M249.39 335.34c-18.36-14.05-30.52-38.56-30.52-66.45 0-28.08 12.33-52.15 30.91-66.16h.44c18.58 14 30.91 38.07 30.91 66.16 0 27.89-12.16 52.4-30.52 66.45h-1.22zm64.01-86.99H186.79m126.61 40.34H186.79" class="st1"/>
  <path d="M144.21 125.1H355.8c15.42 0 27.92 12.5 27.92 27.92v193.96c0 15.42-12.5 27.92-27.92 27.92H144.21c-15.42 0-27.92-12.5-27.92-27.92V153.02c0-15.42 12.5-27.92 27.92-27.92zm-27.92 46.93h236.8" class="st1"/>
  <circle cx="144.22" cy="150.45" r="7.77" class="st1"/>
  <circle cx="168.74" cy="150.45" r="7.77" class="st1"/>
  <circle cx="193.26" cy="150.45" r="7.77" class="st1"/>
</svg>
