<svg xmlns="http://www.w3.org/2000/svg" xml:space="preserve" id="Layer_1" x="0" y="0" version="1.1" viewBox="0 0 500 500">
  <style>
    .st1{fill:none;stroke:#000;stroke-width:8;stroke-linecap:round;stroke-linejoin:round;stroke-miterlimit:10}
  </style>
  <path d="M297.02 352.26c38.43-17.9 64.96-57.06 64.48-102.36-.65-60.19-49.69-109.42-109.88-110.27C189.3 138.74 138.5 189 138.5 251.12c0 53.09 37.1 97.51 86.79 108.76 12.68 2.87 24.71-6.91 24.71-19.91v-42.8" class="st1"/>
  <path d="M249.99 295.99h0c-21.83 0-39.53-17.7-39.53-39.53v-27.79h79.05v27.79c0 21.83-17.69 39.53-39.52 39.53z" class="st1"/>
  <path d="m233.94 261.13 11.37 11.36 20.72-20.33m2.45-60.14v35.95m-36.99-35.95v35.95" class="st1"/>
</svg>
