<?xml version="1.0" encoding="utf-8"?>
<svg viewBox="0 0 500 500" xmlns="http://www.w3.org/2000/svg">
  <defs>
    <style>
    .st1{fill:none;stroke:#000;stroke-width:8;stroke-linecap:round;stroke-linejoin:round;stroke-miterlimit:10}
  </style>
  </defs>
  <path d="M 379.124 197.354 L 302.647 120.878 C 301.023 119.254 298.388 119.254 296.764 120.878 L 284.998 132.644 C 283.374 134.268 283.374 136.902 284.998 138.527 L 297.531 151.057 L 243.05 198.37 C 234.903 195.934 226.444 194.698 217.942 194.703 C 194.61 194.703 172.676 203.788 156.179 220.284 C 154.553 221.909 154.553 224.543 156.179 226.167 L 206.182 276.17 L 126.765 355.588 C 126.308 356.044 125.964 356.601 125.76 357.215 L 119.877 374.862 C 118.866 377.9 121.522 380.894 124.66 380.252 C 124.822 380.219 124.982 380.176 125.14 380.123 L 142.787 374.242 C 143.4 374.037 143.955 373.693 144.413 373.237 L 223.83 293.819 L 273.833 343.822 C 274.613 344.603 275.672 345.041 276.775 345.039 C 277.878 345.041 278.936 344.603 279.716 343.822 C 291.367 332.172 299.454 317.562 303.103 301.572 C 306.47 286.822 305.964 271.45 301.631 256.952 L 348.943 202.471 L 361.475 215.003 C 363.099 216.626 365.733 216.626 367.358 215.003 L 379.124 203.237 C 380.748 201.613 380.748 198.978 379.124 197.354 Z M 139.224 366.658 L 130.401 369.6 L 133.342 360.777 L 212.065 282.053 L 217.947 287.935 L 139.224 366.658 Z M 364.417 206.178 L 351.671 193.432 L 318.336 160.096 C 316.07 157.832 312.204 158.868 311.376 161.962 C 310.99 163.397 311.401 164.928 312.453 165.979 L 343.047 196.573 L 296.751 249.882 L 274.416 227.547 C 272.151 225.281 268.285 226.318 267.457 229.412 C 267.071 230.846 267.482 232.378 268.533 233.43 L 293.3 258.196 C 301.816 285.145 295.487 314.089 276.7 334.921 L 226.775 284.997 L 215.009 273.23 L 165.078 223.301 C 179.61 210.192 198.225 203.021 217.942 203.021 C 226.064 203.021 234.083 204.258 241.795 206.692 L 256.767 221.664 C 257.546 222.445 258.605 222.883 259.709 222.882 C 260.812 222.883 261.871 222.445 262.65 221.664 C 264.275 220.04 264.275 217.405 262.65 215.781 L 250.119 203.249 L 306.355 154.413 C 308.176 152.832 308.274 150.038 306.57 148.331 L 293.824 135.587 L 299.705 129.704 L 370.301 200.297 L 364.417 206.178 Z" style="" transform="matrix(0.9999999999999999, 0, 0, 0.9999999999999999, 0, 0)"/>
</svg>