<svg xmlns="http://www.w3.org/2000/svg" viewBox="0 0 500 500">
    <defs>
        <style>
            .st1{fill:none;stroke:#000;stroke-width:8;stroke-linecap:round;stroke-linejoin:round;stroke-miterlimit:10}
        </style>
    </defs>
    <path fill="currentColor" d="M298.896 241.084 156.418 143.94a10.788 10.788 0 0 0-11.124-.626 10.79 10.79 0 0 0-5.75 9.542v194.287c0 4.005 2.213 7.675 5.75 9.542a10.772 10.772 0 0 0 5.044 1.252c2.13 0 4.256-.633 6.08-1.87l142.477-97.145a10.796 10.796 0 0 0 0-17.838zm-137.764 85.634v-153.44L273.652 250l-112.52 76.718zM349.662 154.295c-5.961 0-10.793 4.832-10.793 10.794V334.91c0 5.962 4.832 10.794 10.793 10.794 5.966 0 10.794-4.832 10.794-10.794V165.09c0-5.962-4.832-10.794-10.794-10.794Z"/>
</svg>
