<svg xmlns="http://www.w3.org/2000/svg" xml:space="preserve" id="Layer_1" x="0" y="0" version="1.1" viewBox="0 0 494.94 494.94">
  <style>
    .st1{fill:none;stroke:#000;stroke-width:8;stroke-linecap:round;stroke-linejoin:round;stroke-miterlimit:10}
  </style>
  <path d="M299.24 191.63c0-27.13-22.51-49.01-49.88-47.96-24.82.95-45.06 21.13-46.08 45.95-.66 16.11 6.63 30.55 18.26 39.73 2.08 1.64 2.68 4.53 1.37 6.83l-26.39 46.19" class="st1"/>
  <circle cx="187.88" cy="296.57" r="16.31" class="st1"/>
  <path d="M166.24 254.23c-23.94 12.78-32.63 42.94-18.83 66.59 12.52 21.45 39.86 29.81 62.23 19.02 14.52-7 23.83-20.23 26.45-34.81.47-2.6 2.73-4.5 5.38-4.42l53.18 1.53" class="st1"/>
  <circle cx="311.25" cy="303.06" r="16.31" class="st1"/>
  <path d="M281.27 344.34c23.2 14.07 53.58 6.16 66.87-17.78 12.06-21.72 5.3-49.49-15.4-63.23-13.43-8.92-29.56-10.17-43.44-4.98-2.48.93-5.26-.06-6.55-2.37l-25.82-46.51" class="st1"/>
  <circle cx="249.27" cy="194.71" r="16.31" class="st1"/>
</svg>
